<?xml version="1.0" standalone="no"?>
<!DOCTYPE svg PUBLIC "-//W3C//DTD SVG 20010904//EN"
 "http://www.w3.org/TR/2001/REC-SVG-20010904/DTD/svg10.dtd">
<svg version="1.0" xmlns="http://www.w3.org/2000/svg"
 width="2085.000000pt" height="2080.000000pt" viewBox="0 0 2085.000000 2080.000000"
 preserveAspectRatio="xMidYMid meet">

<g transform="translate(0.000000,2080.000000) scale(0.100000,-0.100000)"
fill="#000000" stroke="none">
<path d="M10070 18718 c-608 -506 -1115 -928 -1128 -938 l-22 -18 371 -619
c204 -340 374 -622 379 -626 5 -6 929 807 1191 1050 l27 25 1165 -1252 1166
-1252 -63 -101 c-34 -56 -821 -1324 -1748 -2817 -927 -1493 -2096 -3376 -2598
-4185 -502 -808 -953 -1534 -1001 -1612 l-89 -142 670 -2323 c657 -2278 670
-2324 703 -2353 19 -16 399 -370 846 -785 447 -415 817 -757 823 -759 6 -2 7
5 3 18 -4 12 -362 1271 -796 2798 l-789 2776 18 31 c17 28 5142 8239 5146
8243 1 1 883 -946 1961 -2104 1078 -1158 2060 -2212 2182 -2343 l221 -238 746
282 c411 154 746 285 747 289 0 7 -8872 9718 -8981 9828 l-45 47 -1105 -920z"/>
</g>
</svg>
